<?xml version="1.0" standalone="no"?>
<!DOCTYPE svg PUBLIC "-//W3C//DTD SVG 20010904//EN"
 "http://www.w3.org/TR/2001/REC-SVG-20010904/DTD/svg10.dtd">
<svg version="1.0" xmlns="http://www.w3.org/2000/svg"
 width="213.000000pt" height="213.000000pt" viewBox="0 0 213.000000 213.000000"
 preserveAspectRatio="xMidYMid meet">
<metadata>
Created by potrace 1.14, written by Peter Selinger 2001-2017
</metadata>
<g transform="translate(0.000000,213.000000) scale(0.100000,-0.100000)"
fill="#000000" stroke="none">
<path d="M830 1565 c-14 -7 -47 -23 -73 -36 -61 -29 -120 -99 -143 -169 -9
-30 -21 -59 -25 -64 -5 -6 -9 -93 -9 -194 0 -145 4 -195 17 -236 47 -144 88
-189 226 -245 37 -15 442 -15 488 0 124 40 190 103 224 215 19 62 21 467 4
511 -32 77 -42 93 -80 132 -23 23 -58 48 -78 57 -20 8 -49 22 -64 30 -39 19
-449 19 -487 -1z m387 -241 c13 -20 12 -25 -10 -50 -22 -25 -27 -27 -50 -17
-31 14 -42 45 -27 73 15 28 67 24 87 -6z m-67 -99 c27 -39 36 -45 66 -45 22 0
37 -6 40 -15 11 -27 -16 -45 -66 -45 -40 0 -52 5 -68 25 -23 29 -35 31 -52 10
-11 -13 -8 -19 14 -40 22 -20 26 -33 26 -77 l0 -53 22 37 c51 88 174 91 227 5
38 -62 22 -134 -40 -178 -66 -46 -164 -17 -195 58 -13 29 -17 32 -35 23 -33
-18 -49 4 -49 69 0 56 -1 58 -40 80 -37 21 -60 47 -60 69 0 15 82 103 114 123
37 22 55 14 96 -46z m-195 -149 c70 -30 97 -128 53 -192 -28 -41 -56 -54 -115
-54 -39 0 -50 5 -84 39 -33 33 -39 45 -39 82 0 55 27 100 71 122 42 20 70 21
114 3z"/>
<path d="M1219 1027 c-58 -29 -63 -104 -9 -132 53 -28 110 6 110 65 -1 51 -57
88 -101 67z"/>
<path d="M868 1024 c-53 -28 -62 -77 -22 -118 33 -32 65 -33 98 -3 42 37 39
89 -6 117 -39 23 -36 23 -70 4z"/>
</g>
</svg>
